<svg width="32" height="32" viewBox="0 0 32 32" fill="none" xmlns="http://www.w3.org/2000/svg">
<g clip-path="url(#clip0_163_41)">
<path fill-rule="evenodd" clip-rule="evenodd" d="M4.16649 16C4.16649 10.7088 7.63924 6.22868 12.4299 4.71469C12.9894 3.52187 12.6512 2.90238 11.4152 2.85602C5.98156 4.75111 2.08301 9.92023 2.08301 16C2.08301 22.3401 6.3226 27.6899 12.1215 29.3693C13.2929 28.9764 13.5685 28.3321 12.9482 27.4361C7.8918 26.0904 4.16649 21.4802 4.16649 16Z" fill="#0965FE"/>
<path fill-rule="evenodd" clip-rule="evenodd" d="M20.0037 4.86107C24.5688 6.50212 27.8333 10.8699 27.8333 16C27.8333 21.3007 24.348 25.7875 19.544 27.2935C18.8813 28.2008 19.0894 28.8635 20.1685 29.2818C25.8181 27.5104 29.9168 22.2339 29.9168 16C29.9168 10.0741 26.2131 5.01323 20.994 3.00613C19.7798 3.05997 19.4497 3.67828 20.0037 4.86107Z" fill="#0965FE"/>
<path fill-rule="evenodd" clip-rule="evenodd" d="M19.544 27.2935C24.348 25.7874 27.8333 21.3007 27.8333 16C27.8333 10.8698 24.5687 6.50209 20.0037 4.86104C19.4497 3.67825 19.7798 3.05994 20.994 3.0061C26.213 5.0132 29.9168 10.0741 29.9168 16C29.9168 22.2339 25.8181 27.5104 20.1685 29.2818C19.0894 28.8634 18.8813 28.2007 19.544 27.2935ZM16 31.9167C24.7906 31.9167 31.9167 24.7906 31.9167 16C31.9167 7.20938 24.7906 0.083252 16 0.083252C7.20938 0.083252 0.083252 7.20938 0.083252 16C0.083252 24.7906 7.20938 31.9167 16 31.9167ZM12.4301 4.71468C7.6394 6.22866 4.16664 10.7088 4.16664 16C4.16664 21.4802 7.89196 26.0904 12.9484 27.4361C13.5687 28.332 13.2931 28.9763 12.1216 29.3693C6.32276 27.6899 2.08317 22.3401 2.08317 16C2.08317 9.92022 5.98171 4.7511 11.4153 2.85601C12.6513 2.90236 12.9895 3.52186 12.4301 4.71468Z" fill="black"/>
<path d="M20.7474 21.6567C20.7233 21.741 20.6871 21.8103 20.639 21.8645C20.5908 21.9127 20.5245 21.9518 20.4402 21.9819C20.3559 22.006 20.2505 22.0241 20.124 22.0361C20.0036 22.0482 19.853 22.0542 19.6723 22.0542C19.4856 22.0542 19.326 22.0482 19.1935 22.0361C19.067 22.0241 18.9616 22.006 18.8773 21.9819C18.793 21.9518 18.7297 21.9127 18.6876 21.8645C18.6454 21.8103 18.6123 21.741 18.5882 21.6567L16.1399 12.8302H16.1218L13.8633 21.6567C13.8452 21.741 13.8151 21.8103 13.7729 21.8645C13.7307 21.9127 13.6705 21.9518 13.5922 21.9819C13.5139 22.006 13.4115 22.0241 13.2851 22.0361C13.1646 22.0482 13.008 22.0542 12.8153 22.0542C12.6165 22.0542 12.4509 22.0482 12.3184 22.0361C12.1859 22.0241 12.0775 22.006 11.9932 21.9819C11.9088 21.9518 11.8426 21.9127 11.7944 21.8645C11.7522 21.8103 11.7221 21.741 11.7041 21.6567L8.61433 10.8607C8.57819 10.7222 8.55711 10.6138 8.55109 10.5355C8.55109 10.4572 8.57518 10.397 8.62337 10.3548C8.67757 10.3126 8.76189 10.2855 8.87633 10.2735C8.99076 10.2615 9.14434 10.2554 9.33707 10.2554C9.52378 10.2554 9.67134 10.2615 9.77975 10.2735C9.88817 10.2795 9.96947 10.2946 10.0237 10.3187C10.0839 10.3428 10.1231 10.3759 10.1411 10.418C10.1652 10.4602 10.1833 10.5144 10.1953 10.5807L12.8243 20.3738H12.8333L15.3268 10.5987C15.3449 10.5325 15.366 10.4783 15.39 10.4361C15.4202 10.3879 15.4653 10.3518 15.5256 10.3277C15.5858 10.3036 15.6701 10.2855 15.7785 10.2735C15.893 10.2615 16.0405 10.2554 16.2212 10.2554C16.3898 10.2554 16.5223 10.2615 16.6187 10.2735C16.7211 10.2855 16.8024 10.3036 16.8626 10.3277C16.9229 10.3518 16.965 10.3879 16.9891 10.4361C17.0192 10.4783 17.0433 10.5325 17.0614 10.5987L19.7446 20.3738H19.7626L22.3374 10.5897C22.3555 10.5295 22.3735 10.4783 22.3916 10.4361C22.4097 10.3879 22.4458 10.3518 22.5 10.3277C22.5603 10.3036 22.6416 10.2855 22.744 10.2735C22.8524 10.2615 22.9939 10.2554 23.1686 10.2554C23.3493 10.2554 23.4908 10.2645 23.5932 10.2825C23.7016 10.2946 23.7799 10.3217 23.8281 10.3638C23.8763 10.406 23.8973 10.4662 23.8913 10.5445C23.8913 10.6228 23.8763 10.7312 23.8461 10.8698L20.7474 21.6567Z" fill="#0965FE"/>
</g>
<defs>
<clipPath id="clip0_163_41">
<rect width="32" height="32" fill="white"/>
</clipPath>
</defs>
</svg>
