<svg width="32" height="32" viewBox="0 0 32 32" fill="none" xmlns="http://www.w3.org/2000/svg">
<g clip-path="url(#clip0_111_207)">
<path fill-rule="evenodd" clip-rule="evenodd" d="M4.16661 16C4.16661 10.7088 7.63937 6.22868 12.43 4.71469C12.9895 3.52187 12.6513 2.90238 11.4153 2.85602C5.98168 4.75111 2.08313 9.92023 2.08313 16C2.08313 22.3401 6.32272 27.6899 12.1216 29.3693C13.293 28.9764 13.5686 28.3321 12.9484 27.4361C7.89193 26.0904 4.16661 21.4802 4.16661 16Z" fill="#8D4B18"/>
<path fill-rule="evenodd" clip-rule="evenodd" d="M20.0037 4.86107C24.5688 6.50212 27.8333 10.8699 27.8333 16C27.8333 21.3007 24.348 25.7875 19.544 27.2935C18.8813 28.2008 19.0894 28.8635 20.1685 29.2818C25.8181 27.5104 29.9168 22.2339 29.9168 16C29.9168 10.0741 26.2131 5.01323 20.994 3.00613C19.7798 3.05997 19.4497 3.67828 20.0037 4.86107Z" fill="#8D4B18"/>
<path fill-rule="evenodd" clip-rule="evenodd" d="M19.544 27.2935C24.348 25.7874 27.8333 21.3007 27.8333 16C27.8333 10.8698 24.5687 6.50209 20.0037 4.86104C19.4497 3.67825 19.7798 3.05994 20.994 3.0061C26.213 5.0132 29.9168 10.0741 29.9168 16C29.9168 22.2339 25.8181 27.5104 20.1685 29.2818C19.0894 28.8634 18.8813 28.2007 19.544 27.2935ZM16 31.9167C24.7906 31.9167 31.9167 24.7906 31.9167 16C31.9167 7.20938 24.7906 0.083252 16 0.083252C7.20938 0.083252 0.083252 7.20938 0.083252 16C0.083252 24.7906 7.20938 31.9167 16 31.9167ZM12.4301 4.71468C7.6394 6.22866 4.16664 10.7088 4.16664 16C4.16664 21.4802 7.89196 26.0904 12.9484 27.4361C13.5687 28.332 13.2931 28.9763 12.1216 29.3693C6.32276 27.6899 2.08317 22.3401 2.08317 16C2.08317 9.92022 5.98171 4.7511 11.4153 2.85601C12.6513 2.90236 12.9895 3.52186 12.4301 4.71468Z" fill="black"/>
<path d="M21.5326 23.7048C21.5326 23.7654 21.5175 23.8184 21.4872 23.8638C21.457 23.9092 21.404 23.947 21.3283 23.9773C21.2526 24 21.1504 24.0189 21.0218 24.0341C20.9007 24.0568 20.7493 24.0681 20.5677 24.0681C20.3709 24.0681 20.212 24.0568 20.0909 24.0341C19.9698 24.0189 19.8715 24 19.7958 23.9773C19.7201 23.947 19.6671 23.9092 19.6368 23.8638C19.6066 23.8184 19.5914 23.7654 19.5914 23.7048V17.1888H12.9051V23.7048C12.9051 23.7654 12.89 23.8184 12.8597 23.8638C12.8294 23.9092 12.7764 23.947 12.7008 23.9773C12.6251 24 12.5229 24.0189 12.3943 24.0341C12.2732 24.0568 12.118 24.0681 11.9288 24.0681C11.7472 24.0681 11.592 24.0568 11.4634 24.0341C11.3347 24.0189 11.2326 24 11.1569 23.9773C11.0812 23.947 11.0282 23.9092 10.998 23.8638C10.9677 23.8184 10.9525 23.7654 10.9525 23.7048V9.60563C10.9525 9.54509 10.9677 9.49211 10.998 9.44671C11.0282 9.4013 11.0812 9.36724 11.1569 9.34454C11.2326 9.31427 11.3347 9.29156 11.4634 9.27643C11.592 9.25372 11.7472 9.24237 11.9288 9.24237C12.118 9.24237 12.2732 9.25372 12.3943 9.27643C12.5229 9.29156 12.6251 9.31427 12.7008 9.34454C12.7764 9.36724 12.8294 9.4013 12.8597 9.44671C12.89 9.49211 12.9051 9.54509 12.9051 9.60563V15.486H19.5914V9.60563C19.5914 9.54509 19.6066 9.49211 19.6368 9.44671C19.6671 9.4013 19.7201 9.36724 19.7958 9.34454C19.8715 9.31427 19.9698 9.29156 20.0909 9.27643C20.212 9.25372 20.3709 9.24237 20.5677 9.24237C20.7493 9.24237 20.9007 9.25372 21.0218 9.27643C21.1504 9.29156 21.2526 9.31427 21.3283 9.34454C21.404 9.36724 21.457 9.4013 21.4872 9.44671C21.5175 9.49211 21.5326 9.54509 21.5326 9.60563V23.7048Z" fill="#8D4B18"/>
</g>
<defs>
<clipPath id="clip0_111_207">
<rect width="32" height="32" fill="white"/>
</clipPath>
</defs>
</svg>
