<svg width="55" height="42" viewBox="0 0 55 42" fill="none" xmlns="http://www.w3.org/2000/svg">
<path d="M5.71924 39.8033V36.0922H4.49882V35.4446H7.6495V36.0922H6.39172V39.8033H5.71924ZM8.55466 41.2354L9.21468 39.7099L9.22091 40.2205L7.58952 36.5343H8.33672L9.35789 38.9378C9.37865 38.9793 9.40356 39.0436 9.43261 39.1308C9.46167 39.2138 9.48658 39.2968 9.50733 39.3799L9.34544 39.4172C9.37865 39.3301 9.40978 39.2429 9.43884 39.1557C9.47205 39.0685 9.50318 38.9814 9.53224 38.8942L10.3853 36.5343H11.1449L9.79999 39.8033L9.24581 41.2354H8.55466ZM11.6247 39.8033V36.5343H12.2723V37.5617L12.21 37.3126C12.2557 37.1549 12.3325 37.0117 12.4404 36.883C12.5525 36.7543 12.6791 36.6526 12.8203 36.5779C12.9655 36.5032 13.115 36.4658 13.2686 36.4658C13.3391 36.4658 13.4056 36.472 13.4678 36.4845C13.5342 36.4969 13.5861 36.5115 13.6235 36.5281L13.4554 37.2254C13.4056 37.2047 13.3495 37.1881 13.2873 37.1756C13.2291 37.159 13.171 37.1507 13.1129 37.1507C13.0008 37.1507 12.8929 37.1736 12.7891 37.2192C12.6895 37.2607 12.6002 37.3209 12.5214 37.3998C12.4467 37.4745 12.3865 37.5638 12.3408 37.6675C12.2951 37.7672 12.2723 37.8772 12.2723 37.9976V39.8033H11.6247ZM15.5217 39.8656C15.1855 39.8656 14.8866 39.795 14.6251 39.6538C14.3677 39.5086 14.1643 39.3114 14.0149 39.0623C13.8696 38.8132 13.797 38.5268 13.797 38.203C13.797 37.9457 13.8385 37.7111 13.9215 37.4994C14.0045 37.2877 14.1187 37.1051 14.264 36.9515C14.4134 36.7937 14.5898 36.6734 14.7932 36.5903C15.0008 36.5032 15.2249 36.4596 15.4657 36.4596C15.6774 36.4596 15.8746 36.5011 16.0572 36.5841C16.2399 36.663 16.3976 36.773 16.5305 36.9141C16.6675 37.0553 16.7712 37.2234 16.8418 37.4185C16.9165 37.6094 16.9518 37.8191 16.9477 38.0474L16.9414 38.3213H14.2702L14.127 37.8108H16.3873L16.2939 37.9166V37.7672C16.2814 37.6302 16.2357 37.5077 16.1569 37.3998C16.078 37.2919 15.9784 37.2068 15.858 37.1445C15.7376 37.0822 15.6068 37.0511 15.4657 37.0511C15.2415 37.0511 15.0527 37.0947 14.8991 37.1819C14.7455 37.2649 14.6293 37.3894 14.5504 37.5555C14.4715 37.7174 14.4321 37.9187 14.4321 38.1594C14.4321 38.3878 14.4798 38.587 14.5753 38.7572C14.6708 38.9232 14.8057 39.0519 14.98 39.1433C15.1544 39.2346 15.3557 39.2802 15.584 39.2802C15.7459 39.2802 15.8953 39.2533 16.0323 39.1993C16.1735 39.1453 16.325 39.0478 16.4869 38.9066L16.8107 39.3612C16.711 39.4608 16.5886 39.548 16.4433 39.6227C16.3022 39.6974 16.1506 39.7576 15.9887 39.8033C15.831 39.8448 15.6753 39.8656 15.5217 39.8656ZM18.7343 39.8656C18.4603 39.8656 18.2133 39.8178 17.9933 39.7223C17.7733 39.6269 17.5907 39.4857 17.4454 39.2989L17.8813 38.9253C18.0058 39.0706 18.1407 39.1765 18.286 39.2429C18.4354 39.3052 18.6036 39.3363 18.7904 39.3363C18.8651 39.3363 18.9336 39.328 18.9958 39.3114C19.0623 39.2906 19.1183 39.2616 19.164 39.2242C19.2138 39.1868 19.2511 39.1433 19.276 39.0934C19.3009 39.0395 19.3134 38.9814 19.3134 38.9191C19.3134 38.8112 19.274 38.724 19.1951 38.6576C19.1536 38.6285 19.0872 38.5974 18.9958 38.5642C18.9087 38.5268 18.7945 38.4895 18.6534 38.4521C18.4126 38.3898 18.2154 38.3193 18.0618 38.2404C17.9082 38.1615 17.7899 38.0723 17.7069 37.9726C17.6446 37.8938 17.599 37.8087 17.5699 37.7174C17.5409 37.6219 17.5263 37.5181 17.5263 37.406C17.5263 37.269 17.5554 37.1445 17.6135 37.0324C17.6758 36.9162 17.7588 36.8166 17.8626 36.7335C17.9705 36.6464 18.095 36.58 18.2362 36.5343C18.3815 36.4886 18.5351 36.4658 18.697 36.4658C18.8505 36.4658 19.0021 36.4866 19.1515 36.5281C19.3051 36.5696 19.4462 36.6298 19.5749 36.7086C19.7036 36.7875 19.8115 36.8809 19.8987 36.9888L19.5313 37.3936C19.4525 37.3147 19.3653 37.2462 19.2698 37.1881C19.1785 37.1258 19.0851 37.0781 18.9896 37.0449C18.8941 37.0117 18.807 36.9951 18.7281 36.9951C18.6409 36.9951 18.562 37.0034 18.4915 37.02C18.4209 37.0366 18.3607 37.0615 18.3109 37.0947C18.2652 37.1279 18.23 37.1694 18.205 37.2192C18.1801 37.269 18.1677 37.3251 18.1677 37.3873C18.1718 37.4413 18.1843 37.4932 18.205 37.543C18.23 37.5887 18.2632 37.6281 18.3047 37.6613C18.3503 37.6945 18.4188 37.7298 18.5102 37.7672C18.6015 37.8045 18.7177 37.8398 18.8588 37.873C19.0664 37.927 19.2366 37.9872 19.3694 38.0536C19.5064 38.1159 19.6143 38.1885 19.6932 38.2715C19.7762 38.3504 19.8344 38.4417 19.8676 38.5455C19.9008 38.6493 19.9174 38.7655 19.9174 38.8942C19.9174 39.081 19.8634 39.2491 19.7555 39.3986C19.6517 39.5438 19.5106 39.658 19.3321 39.741C19.1536 39.824 18.9543 39.8656 18.7343 39.8656ZM24.2996 39.8656C23.9966 39.8656 23.7185 39.8116 23.4653 39.7037C23.212 39.5957 22.992 39.4421 22.8052 39.2429C22.6184 39.0395 22.4731 38.8008 22.3694 38.5268C22.2697 38.2528 22.2199 37.9519 22.2199 37.624C22.2199 37.3126 22.2739 37.0241 22.3818 36.7584C22.4939 36.4886 22.6475 36.252 22.8426 36.0486C23.0377 35.8452 23.2639 35.6875 23.5213 35.5754C23.7787 35.4633 24.0568 35.4073 24.3557 35.4073C24.5674 35.4073 24.7729 35.4405 24.9721 35.5069C25.1755 35.5692 25.3582 35.6584 25.5201 35.7746C25.6861 35.8867 25.821 36.0154 25.9248 36.1607L25.4765 36.6277C25.3561 36.5073 25.2336 36.4077 25.1091 36.3288C24.9887 36.2458 24.8642 36.1835 24.7355 36.142C24.611 36.1005 24.4844 36.0797 24.3557 36.0797C24.1523 36.0797 23.9613 36.1192 23.7828 36.198C23.6085 36.2728 23.4549 36.3786 23.322 36.5156C23.1934 36.6526 23.0917 36.8166 23.0169 37.0075C22.9422 37.1943 22.9049 37.3998 22.9049 37.624C22.9049 37.8606 22.9401 38.0764 23.0107 38.2715C23.0854 38.4625 23.1892 38.6264 23.322 38.7634C23.4549 38.9004 23.6126 39.0063 23.7953 39.081C23.9821 39.1516 24.1875 39.1868 24.4117 39.1868C24.5487 39.1868 24.6836 39.1682 24.8164 39.1308C24.9493 39.0934 25.0738 39.0395 25.19 38.9689C25.3063 38.8983 25.4121 38.8153 25.5076 38.7198L25.8438 39.2678C25.7484 39.3799 25.6176 39.4816 25.4516 39.5729C25.2897 39.6642 25.107 39.7369 24.9036 39.7908C24.7044 39.8406 24.503 39.8656 24.2996 39.8656ZM27.8532 39.8656C27.5834 39.8656 27.3364 39.7908 27.1123 39.6414C26.8923 39.492 26.7158 39.2885 26.583 39.0312C26.4502 38.7738 26.3838 38.4832 26.3838 38.1594C26.3838 37.8315 26.4502 37.5409 26.583 37.2877C26.72 37.0303 26.9026 36.829 27.131 36.6837C27.3634 36.5384 27.6229 36.4658 27.9093 36.4658C28.0795 36.4658 28.2352 36.4907 28.3763 36.5405C28.5174 36.5903 28.6399 36.6609 28.7437 36.7522C28.8516 36.8394 28.9388 36.9411 29.0052 37.0573C29.0757 37.1736 29.1193 37.2981 29.1359 37.4309L28.9927 37.3811V36.5343H29.6403V39.8033H28.9927V39.025L29.1422 38.9814C29.1173 39.0934 29.0654 39.2034 28.9865 39.3114C28.9118 39.4152 28.8142 39.5086 28.6938 39.5916C28.5776 39.6746 28.4469 39.741 28.3016 39.7908C28.1604 39.8406 28.011 39.8656 27.8532 39.8656ZM28.0214 39.274C28.2165 39.274 28.3887 39.2263 28.5382 39.1308C28.6876 39.0353 28.8039 38.9046 28.8869 38.7385C28.974 38.5683 29.0176 38.3753 29.0176 38.1594C29.0176 37.9477 28.974 37.7589 28.8869 37.5928C28.8039 37.4268 28.6876 37.296 28.5382 37.2005C28.3887 37.1051 28.2165 37.0573 28.0214 37.0573C27.8304 37.0573 27.6602 37.1051 27.5108 37.2005C27.3655 37.296 27.2493 37.4268 27.1621 37.5928C27.0791 37.7589 27.0376 37.9477 27.0376 38.1594C27.0376 38.3753 27.0791 38.5683 27.1621 38.7385C27.2493 38.9046 27.3655 39.0353 27.5108 39.1308C27.6602 39.2263 27.8304 39.274 28.0214 39.274ZM30.5482 39.8033V35.1956H31.1896V39.8033H30.5482ZM33.4263 39.8656C33.1232 39.8656 32.8513 39.7908 32.6106 39.6414C32.3739 39.492 32.1851 39.2885 32.0439 39.0312C31.9069 38.7738 31.8385 38.4853 31.8385 38.1657C31.8385 37.846 31.9069 37.5575 32.0439 37.3002C32.1851 37.0428 32.3739 36.8394 32.6106 36.69C32.8513 36.5405 33.1232 36.4658 33.4263 36.4658C33.7168 36.4658 33.9804 36.526 34.217 36.6464C34.4578 36.7626 34.6405 36.9224 34.765 37.1258L34.4101 37.5617C34.3436 37.4662 34.2585 37.379 34.1548 37.3002C34.051 37.2213 33.941 37.159 33.8248 37.1134C33.7085 37.0677 33.5964 37.0449 33.4885 37.0449C33.2893 37.0449 33.1108 37.0947 32.953 37.1943C32.7994 37.2898 32.677 37.4226 32.5857 37.5928C32.4943 37.763 32.4487 37.954 32.4487 38.1657C32.4487 38.3774 32.4964 38.5683 32.5919 38.7385C32.6874 38.9046 32.814 39.0374 32.9717 39.137C33.1294 39.2367 33.3038 39.2865 33.4947 39.2865C33.6068 39.2865 33.7148 39.2678 33.8185 39.2304C33.9265 39.1931 34.0302 39.137 34.1299 39.0623C34.2295 38.9876 34.3229 38.8963 34.4101 38.7883L34.765 39.2242C34.6321 39.411 34.4412 39.5646 34.1921 39.685C33.9472 39.8054 33.6919 39.8656 33.4263 39.8656ZM36.5156 39.8656C36.2832 39.8656 36.0798 39.8116 35.9054 39.7037C35.7352 39.5957 35.6024 39.4442 35.5069 39.2491C35.4156 39.054 35.3699 38.8215 35.3699 38.5517V36.5343H36.0113V38.3774C36.0113 38.5683 36.0403 38.7344 36.0985 38.8755C36.1607 39.0125 36.2479 39.1184 36.36 39.1931C36.4762 39.2678 36.6153 39.3052 36.7772 39.3052C36.8975 39.3052 37.0076 39.2865 37.1072 39.2491C37.2068 39.2076 37.2919 39.1516 37.3625 39.081C37.4372 39.0104 37.4953 38.9253 37.5368 38.8257C37.5783 38.7261 37.5991 38.6181 37.5991 38.5019V36.5343H38.2404V39.8033H37.5991V39.1184L37.7112 39.0436C37.6614 39.1972 37.5763 39.3363 37.4559 39.4608C37.3396 39.5854 37.2006 39.685 37.0387 39.7597C36.8768 39.8303 36.7024 39.8656 36.5156 39.8656ZM39.1524 39.8033V35.1956H39.7938V39.8033H39.1524ZM41.8997 39.8656C41.6299 39.8656 41.3829 39.7908 41.1587 39.6414C40.9387 39.492 40.7623 39.2885 40.6295 39.0312C40.4966 38.7738 40.4302 38.4832 40.4302 38.1594C40.4302 37.8315 40.4966 37.5409 40.6295 37.2877C40.7665 37.0303 40.9491 36.829 41.1774 36.6837C41.4099 36.5384 41.6693 36.4658 41.9558 36.4658C42.1259 36.4658 42.2816 36.4907 42.4228 36.5405C42.5639 36.5903 42.6863 36.6609 42.7901 36.7522C42.8981 36.8394 42.9852 36.9411 43.0516 37.0573C43.1222 37.1736 43.1658 37.2981 43.1824 37.4309L43.0392 37.3811V36.5343H43.6868V39.8033H43.0392V39.025L43.1886 38.9814C43.1637 39.0934 43.1118 39.2034 43.033 39.3114C42.9582 39.4152 42.8607 39.5086 42.7403 39.5916C42.6241 39.6746 42.4933 39.741 42.348 39.7908C42.2069 39.8406 42.0575 39.8656 41.8997 39.8656ZM42.0678 39.274C42.2629 39.274 42.4352 39.2263 42.5846 39.1308C42.7341 39.0353 42.8503 38.9046 42.9333 38.7385C43.0205 38.5683 43.0641 38.3753 43.0641 38.1594C43.0641 37.9477 43.0205 37.7589 42.9333 37.5928C42.8503 37.4268 42.7341 37.296 42.5846 37.2005C42.4352 37.1051 42.2629 37.0573 42.0678 37.0573C41.8769 37.0573 41.7067 37.1051 41.5572 37.2005C41.412 37.296 41.2957 37.4268 41.2086 37.5928C41.1255 37.7589 41.084 37.9477 41.084 38.1594C41.084 38.3753 41.1255 38.5683 41.2086 38.7385C41.2957 38.9046 41.412 39.0353 41.5572 39.1308C41.7067 39.2263 41.8769 39.274 42.0678 39.274ZM44.987 39.8033V35.6999H45.6283V39.8033H44.987ZM44.3083 37.157V36.5343H46.388V37.157H44.3083ZM48.411 39.8656C48.0914 39.8656 47.805 39.7929 47.5518 39.6476C47.3027 39.4982 47.1055 39.2968 46.9602 39.0436C46.8149 38.7863 46.7423 38.4936 46.7423 38.1657C46.7423 37.8377 46.8149 37.5472 46.9602 37.2939C47.1055 37.0366 47.3027 36.8352 47.5518 36.69C47.805 36.5405 48.0914 36.4658 48.411 36.4658C48.7265 36.4658 49.0088 36.5405 49.2579 36.69C49.5111 36.8352 49.7103 37.0366 49.8556 37.2939C50.0009 37.5472 50.0736 37.8377 50.0736 38.1657C50.0736 38.4936 50.0009 38.7863 49.8556 39.0436C49.7103 39.2968 49.5111 39.4982 49.2579 39.6476C49.0088 39.7929 48.7265 39.8656 48.411 39.8656ZM48.411 39.2802C48.6061 39.2802 48.7805 39.2325 48.9341 39.137C49.0877 39.0374 49.2081 38.9046 49.2952 38.7385C49.3824 38.5683 49.4239 38.3774 49.4198 38.1657C49.4239 37.9498 49.3824 37.7589 49.2952 37.5928C49.2081 37.4226 49.0877 37.2898 48.9341 37.1943C48.7805 37.0988 48.6061 37.0511 48.411 37.0511C48.2159 37.0511 48.0395 37.1009 47.8818 37.2005C47.7282 37.296 47.6078 37.4289 47.5206 37.599C47.4335 37.7651 47.3919 37.954 47.3961 38.1657C47.3919 38.3774 47.4335 38.5683 47.5206 38.7385C47.6078 38.9046 47.7282 39.0374 47.8818 39.137C48.0395 39.2325 48.2159 39.2802 48.411 39.2802ZM50.7724 39.8033V36.5343H51.42V37.5617L51.3577 37.3126C51.4034 37.1549 51.4802 37.0117 51.5881 36.883C51.7002 36.7543 51.8268 36.6526 51.9679 36.5779C52.1132 36.5032 52.2626 36.4658 52.4162 36.4658C52.4868 36.4658 52.5532 36.472 52.6155 36.4845C52.6819 36.4969 52.7338 36.5115 52.7712 36.5281L52.603 37.2254C52.5532 37.2047 52.4972 37.1881 52.4349 37.1756C52.3768 37.159 52.3187 37.1507 52.2606 37.1507C52.1485 37.1507 52.0406 37.1736 51.9368 37.2192C51.8372 37.2607 51.7479 37.3209 51.669 37.3998C51.5943 37.4745 51.5341 37.5638 51.4885 37.6675C51.4428 37.7672 51.42 37.8772 51.42 37.9976V39.8033H50.7724Z" fill="white"/>
<path d="M12.5445 16.2418H19.574L16.4282 31H9.39865L12.5445 16.2418ZM27.6134 14.8825H5.12654L6.56352 8.12477H29.0504L27.6134 14.8825ZM49.9057 31H31.8464C31.2767 31 30.7719 30.8576 30.3317 30.5728C29.8915 30.2621 29.5291 29.8737 29.2443 29.4077C28.9594 28.9416 28.7653 28.4108 28.6617 27.8153C28.5581 27.1939 28.5711 26.5725 28.7005 25.9511L30.7589 16.2418H37.7885L36.0796 24.32H51.3427L49.9057 31ZM53.3234 14.8825H31.0308L31.3803 13.2513C31.5098 12.6299 31.7557 12.0215 32.1182 11.426C32.4807 10.8046 32.9079 10.2479 33.3999 9.75595C33.8918 9.26401 34.4226 8.87563 34.9922 8.59082C35.5618 8.28012 36.1314 8.12477 36.701 8.12477H54.7604L53.3234 14.8825Z" fill="#FFDA37"/>
</svg>
