<svg width="32" height="32" viewBox="0 0 32 32" fill="none" xmlns="http://www.w3.org/2000/svg">
<g clip-path="url(#clip0_111_185)">
<path fill-rule="evenodd" clip-rule="evenodd" d="M4.16661 16C4.16661 10.7088 7.63937 6.22868 12.43 4.71469C12.9895 3.52187 12.6513 2.90238 11.4153 2.85602C5.98168 4.75111 2.08313 9.92023 2.08313 16C2.08313 22.3401 6.32272 27.6899 12.1216 29.3693C13.293 28.9764 13.5686 28.3321 12.9484 27.4361C7.89193 26.0904 4.16661 21.4802 4.16661 16Z" fill="#96A875"/>
<path fill-rule="evenodd" clip-rule="evenodd" d="M20.0037 4.86107C24.5688 6.50212 27.8333 10.8699 27.8333 16C27.8333 21.3007 24.348 25.7875 19.544 27.2935C18.8813 28.2008 19.0894 28.8635 20.1685 29.2818C25.8181 27.5104 29.9168 22.2339 29.9168 16C29.9168 10.0741 26.2131 5.01323 20.994 3.00613C19.7798 3.05997 19.4497 3.67828 20.0037 4.86107Z" fill="#96A875"/>
<path fill-rule="evenodd" clip-rule="evenodd" d="M19.544 27.2935C24.348 25.7874 27.8333 21.3007 27.8333 16C27.8333 10.8698 24.5687 6.50209 20.0037 4.86104C19.4497 3.67825 19.7798 3.05994 20.994 3.0061C26.213 5.0132 29.9168 10.0741 29.9168 16C29.9168 22.2339 25.8181 27.5104 20.1685 29.2818C19.0894 28.8634 18.8813 28.2007 19.544 27.2935ZM16 31.9167C24.7906 31.9167 31.9167 24.7906 31.9167 16C31.9167 7.20938 24.7906 0.083252 16 0.083252C7.20938 0.083252 0.083252 7.20938 0.083252 16C0.083252 24.7906 7.20938 31.9167 16 31.9167ZM12.4301 4.71468C7.6394 6.22866 4.16664 10.7088 4.16664 16C4.16664 21.4802 7.89196 26.0904 12.9484 27.4361C13.5687 28.332 13.2931 28.9763 12.1216 29.3693C6.32276 27.6899 2.08317 22.3401 2.08317 16C2.08317 9.92022 5.98171 4.7511 11.4153 2.85601C12.6513 2.90236 12.9895 3.52186 12.4301 4.71468Z" fill="black"/>
<path d="M20.6546 19.6775C20.6546 20.4121 20.5174 21.0659 20.2429 21.6391C19.9765 22.2122 19.6011 22.7006 19.1168 23.1043C18.6405 23.4998 18.0754 23.7985 17.4215 24.0003C16.7757 24.2021 16.0775 24.303 15.3267 24.303C14.802 24.303 14.3136 24.2586 13.8616 24.1698C13.4176 24.081 13.018 23.9721 12.6628 23.8429C12.3157 23.7137 12.021 23.5805 11.7788 23.4433C11.5447 23.3061 11.3792 23.189 11.2824 23.0922C11.1936 22.9953 11.125 22.8742 11.0765 22.7289C11.0362 22.5755 11.016 22.3737 11.016 22.1234C11.016 21.9459 11.024 21.8005 11.0402 21.6875C11.0563 21.5664 11.0806 21.4696 11.1128 21.3969C11.1451 21.3243 11.1855 21.2758 11.2339 21.2516C11.2824 21.2193 11.3389 21.2032 11.4035 21.2032C11.5165 21.2032 11.6739 21.2718 11.8757 21.409C12.0856 21.5463 12.352 21.6956 12.6749 21.8571C12.9978 22.0185 13.3853 22.1719 13.8373 22.3172C14.2975 22.4544 14.8262 22.523 15.4236 22.523C15.8757 22.523 16.2874 22.4625 16.6587 22.3414C17.0381 22.2203 17.361 22.0508 17.6274 21.8328C17.9019 21.6068 18.1117 21.3323 18.2571 21.0094C18.4024 20.6865 18.475 20.3192 18.475 19.9075C18.475 19.4635 18.3741 19.0841 18.1723 18.7693C17.9705 18.4545 17.7041 18.18 17.3731 17.9459C17.0421 17.7037 16.6627 17.4858 16.2349 17.292C15.8151 17.0902 15.3832 16.8884 14.9392 16.6866C14.4952 16.4767 14.0634 16.2466 13.6436 15.9964C13.2238 15.7461 12.8484 15.4515 12.5175 15.1124C12.1865 14.7734 11.9161 14.3778 11.7062 13.9258C11.5044 13.4656 11.4035 12.9167 11.4035 12.279C11.4035 11.6251 11.5205 11.0439 11.7546 10.5353C11.9968 10.0187 12.3278 9.58678 12.7475 9.23966C13.1754 8.89254 13.6799 8.63018 14.2611 8.45258C14.8504 8.26692 15.4841 8.17408 16.1622 8.17408C16.5093 8.17408 16.8565 8.20637 17.2036 8.27095C17.5588 8.32746 17.8898 8.40819 18.1965 8.51313C18.5113 8.61 18.7898 8.72301 19.032 8.85218C19.2742 8.97326 19.4316 9.07417 19.5043 9.1549C19.585 9.22755 19.6375 9.28809 19.6617 9.33653C19.6859 9.37689 19.7061 9.4334 19.7222 9.50605C19.7384 9.57063 19.7505 9.65136 19.7585 9.74823C19.7666 9.8451 19.7707 9.97022 19.7707 10.1236C19.7707 10.2689 19.7626 10.3981 19.7464 10.5111C19.7384 10.6241 19.7222 10.721 19.698 10.8017C19.6738 10.8743 19.6375 10.9309 19.589 10.9712C19.5487 11.0035 19.5002 11.0197 19.4437 11.0197C19.3549 11.0197 19.2137 10.9631 19.0199 10.8501C18.8342 10.7371 18.6042 10.612 18.3297 10.4748C18.0552 10.3295 17.7283 10.2003 17.3489 10.0873C16.9776 9.96619 16.5578 9.90564 16.0896 9.90564C15.6537 9.90564 15.2742 9.96619 14.9513 10.0873C14.6284 10.2003 14.362 10.3537 14.1522 10.5474C13.9423 10.7412 13.7849 10.9712 13.6799 11.2376C13.575 11.504 13.5225 11.7865 13.5225 12.0852C13.5225 12.5211 13.6234 12.8965 13.8252 13.2114C14.027 13.5262 14.2934 13.8047 14.6244 14.0469C14.9635 14.289 15.3469 14.511 15.7747 14.7128C16.2026 14.9147 16.6385 15.1205 17.0825 15.3304C17.5265 15.5322 17.9624 15.7582 18.3903 16.0085C18.8181 16.2507 19.1975 16.5413 19.5285 16.8803C19.8675 17.2113 20.138 17.6069 20.3398 18.067C20.5497 18.5191 20.6546 19.0559 20.6546 19.6775Z" fill="#96A875"/>
</g>
<defs>
<clipPath id="clip0_111_185">
<rect width="32" height="32" fill="white"/>
</clipPath>
</defs>
</svg>
