<svg width="32" height="32" viewBox="0 0 32 32" fill="none" xmlns="http://www.w3.org/2000/svg">
<g clip-path="url(#clip0_111_196)">
<path fill-rule="evenodd" clip-rule="evenodd" d="M4.16661 16C4.16661 10.7088 7.63937 6.22868 12.43 4.71469C12.9895 3.52187 12.6513 2.90238 11.4153 2.85602C5.98168 4.75111 2.08313 9.92023 2.08313 16C2.08313 22.3401 6.32272 27.6899 12.1216 29.3693C13.293 28.9764 13.5686 28.3321 12.9484 27.4361C7.89193 26.0904 4.16661 21.4802 4.16661 16Z" fill="#7F609C"/>
<path fill-rule="evenodd" clip-rule="evenodd" d="M20.0037 4.86107C24.5688 6.50212 27.8333 10.8699 27.8333 16C27.8333 21.3007 24.348 25.7875 19.544 27.2935C18.8813 28.2008 19.0894 28.8635 20.1685 29.2818C25.8181 27.5104 29.9168 22.2339 29.9168 16C29.9168 10.0741 26.2131 5.01323 20.994 3.00613C19.7798 3.05997 19.4497 3.67828 20.0037 4.86107Z" fill="#7F609C"/>
<path fill-rule="evenodd" clip-rule="evenodd" d="M19.544 27.2935C24.348 25.7874 27.8333 21.3007 27.8333 16C27.8333 10.8698 24.5687 6.50209 20.0037 4.86104C19.4497 3.67825 19.7798 3.05994 20.994 3.0061C26.213 5.0132 29.9168 10.0741 29.9168 16C29.9168 22.2339 25.8181 27.5104 20.1685 29.2818C19.0894 28.8634 18.8813 28.2007 19.544 27.2935ZM16 31.9167C24.7906 31.9167 31.9167 24.7906 31.9167 16C31.9167 7.20938 24.7906 0.083252 16 0.083252C7.20938 0.083252 0.083252 7.20938 0.083252 16C0.083252 24.7906 7.20938 31.9167 16 31.9167ZM12.4301 4.71468C7.6394 6.22866 4.16664 10.7088 4.16664 16C4.16664 21.4802 7.89196 26.0904 12.9484 27.4361C13.5687 28.332 13.2931 28.9763 12.1216 29.3693C6.32276 27.6899 2.08317 22.3401 2.08317 16C2.08317 9.92022 5.98171 4.7511 11.4153 2.85601C12.6513 2.90236 12.9895 3.52186 12.4301 4.71468Z" fill="black"/>
<path d="M22.9314 21.7541C22.9314 21.8046 22.9188 21.8487 22.8936 21.8865C22.8683 21.9244 22.8242 21.9559 22.7612 21.9811C22.6981 22 22.6162 22.0158 22.5153 22.0284C22.4207 22.0473 22.2947 22.0567 22.1371 22.0567C21.9921 22.0567 21.866 22.0473 21.7588 22.0284C21.6579 22.0158 21.576 22 21.5129 21.9811C21.4562 21.9559 21.4152 21.9244 21.39 21.8865C21.3648 21.8487 21.3522 21.8046 21.3522 21.7541V11.097H21.3333L16.974 21.8014C16.955 21.8455 16.9267 21.8834 16.8889 21.9149C16.8573 21.9464 16.8069 21.9748 16.7376 22C16.6745 22.0189 16.5957 22.0315 16.5011 22.0378C16.4129 22.0504 16.3057 22.0567 16.1796 22.0567C16.0472 22.0567 15.9338 22.0504 15.8392 22.0378C15.7446 22.0252 15.6658 22.0095 15.6028 21.9905C15.5398 21.9653 15.4893 21.937 15.4515 21.9054C15.42 21.8739 15.3979 21.8392 15.3853 21.8014L11.2151 11.097H11.2057V21.7541C11.2057 21.8046 11.1931 21.8487 11.1678 21.8865C11.1426 21.9244 11.0985 21.9559 11.0354 21.9811C10.9724 22 10.8905 22.0158 10.7896 22.0284C10.6887 22.0473 10.5595 22.0567 10.4019 22.0567C10.2506 22.0567 10.1245 22.0473 10.0236 22.0284C9.92277 22.0158 9.84081 22 9.77777 21.9811C9.72103 21.9559 9.68006 21.9244 9.65484 21.8865C9.63593 21.8487 9.62647 21.8046 9.62647 21.7541V10.5012C9.62647 10.2365 9.69582 10.0473 9.83451 9.93386C9.9732 9.82038 10.1277 9.76365 10.2979 9.76365H11.2813C11.483 9.76365 11.6596 9.78256 11.8109 9.82038C11.9622 9.85821 12.0945 9.9181 12.208 10.0001C12.3215 10.082 12.4161 10.186 12.4917 10.3121C12.5674 10.4382 12.6335 10.5863 12.6903 10.7565L16.2364 19.617H16.2837L19.9716 10.7849C20.0409 10.5958 20.1166 10.435 20.1985 10.3027C20.2805 10.1703 20.3687 10.0662 20.4633 9.9906C20.5642 9.90864 20.6745 9.8519 20.7943 9.82038C20.914 9.78256 21.0527 9.76365 21.2103 9.76365H22.2411C22.3356 9.76365 22.4239 9.77941 22.5058 9.81093C22.5941 9.83614 22.6666 9.88027 22.7233 9.94331C22.7864 10.0001 22.8368 10.0757 22.8746 10.1703C22.9125 10.2585 22.9314 10.3688 22.9314 10.5012V21.7541Z" fill="#7F609C"/>
</g>
<defs>
<clipPath id="clip0_111_196">
<rect width="32" height="32" fill="white"/>
</clipPath>
</defs>
</svg>
